<svg width="180" height="20" viewBox="0 0 180 20" fill="none" xmlns="http://www.w3.org/2000/svg">
<path d="M12.9247 7.14051C12.7826 6.68029 12.5866 6.26836 12.3366 5.90472C12.0923 5.5354 11.7969 5.22006 11.4503 4.9587C11.1094 4.69733 10.7173 4.50131 10.2741 4.37063C9.83094 4.23426 9.34799 4.16608 8.82526 4.16608C7.88776 4.16608 7.05254 4.40188 6.31958 4.87347C5.58663 5.34506 5.00992 6.03824 4.58947 6.95301C4.17469 7.8621 3.96731 8.97006 3.96731 10.2769C3.96731 11.5951 4.17469 12.7115 4.58947 13.6263C5.00424 14.5411 5.58094 15.2371 6.31958 15.7144C7.05822 16.186 7.91617 16.4218 8.89344 16.4218C9.77981 16.4218 10.5469 16.2513 11.1946 15.9104C11.848 15.5695 12.3508 15.0865 12.7031 14.4615C13.0554 13.8309 13.2315 13.0922 13.2315 12.2456L13.9474 12.3564H9.20879V9.88483H16.2912V11.9814C16.2912 13.4757 15.973 14.7684 15.3366 15.8593C14.7003 16.9502 13.8253 17.7911 12.7116 18.382C11.598 18.9672 10.3196 19.2598 8.8764 19.2598C7.26844 19.2598 5.85651 18.899 4.6406 18.1774C3.43038 17.4502 2.48435 16.4189 1.80253 15.0837C1.1264 13.7428 0.78833 12.1519 0.78833 10.311C0.78833 8.90188 0.987194 7.64335 1.38492 6.5354C1.78833 5.42745 2.35083 4.48711 3.07242 3.71438C3.79401 2.93597 4.6406 2.34506 5.61219 1.94165C6.58379 1.53256 7.6406 1.32801 8.78265 1.32801C9.74856 1.32801 10.6491 1.47006 11.4844 1.75415C12.3196 2.03256 13.0611 2.43029 13.7088 2.94733C14.3622 3.46438 14.8991 4.07801 15.3196 4.78824C15.74 5.49847 16.0156 6.28256 16.1463 7.14051H12.9247Z" fill="#EDF2FF"/>
<path d="M25.0078 19.2769C23.6953 19.2769 22.5618 19.0042 21.6072 18.4587C20.6584 17.9076 19.9282 17.1292 19.4169 16.1235C18.9055 15.1121 18.6498 13.9218 18.6498 12.5524C18.6498 11.2059 18.9055 10.024 19.4169 9.00699C19.9339 7.98426 20.6555 7.18881 21.5817 6.62063C22.5078 6.04676 23.5959 5.75983 24.8459 5.75983C25.6527 5.75983 26.414 5.89051 27.1299 6.15188C27.8515 6.40756 28.4879 6.80529 29.039 7.34506C29.5959 7.88483 30.0334 8.57233 30.3515 9.40756C30.6697 10.2371 30.8288 11.2257 30.8288 12.3735V13.3195H20.0987V11.2399H27.8714C27.8657 10.649 27.7379 10.1235 27.4879 9.66324C27.2379 9.19733 26.8885 8.83086 26.4396 8.56381C25.9964 8.29676 25.4794 8.16324 24.8885 8.16324C24.2578 8.16324 23.7038 8.31665 23.2265 8.62347C22.7493 8.9246 22.3771 9.32233 22.1101 9.81665C21.8487 10.3053 21.7152 10.8422 21.7095 11.4274V13.2428C21.7095 14.0042 21.8487 14.6576 22.1271 15.203C22.4055 15.7428 22.7947 16.1576 23.2947 16.4473C23.7947 16.7314 24.3799 16.8735 25.0504 16.8735C25.4993 16.8735 25.9055 16.811 26.2692 16.686C26.6328 16.5553 26.9481 16.3649 27.2152 16.1149C27.4822 15.8649 27.6839 15.5553 27.8203 15.186L30.701 15.5098C30.5192 16.2712 30.1726 16.936 29.6612 17.5042C29.1555 18.0667 28.5078 18.5042 27.718 18.8167C26.9282 19.1235 26.0248 19.2769 25.0078 19.2769Z" fill="#EDF2FF"/>
<path d="M36.5241 11.3507V19.0212H33.4389V5.93029H36.3878V8.15472H36.5412C36.8423 7.42176 37.3224 6.83938 37.9815 6.40756C38.6463 5.97574 39.4673 5.75983 40.4446 5.75983C41.348 5.75983 42.1349 5.95301 42.8054 6.33938C43.4815 6.72574 44.0042 7.2854 44.3736 8.01836C44.7486 8.75131 44.9332 9.64051 44.9275 10.686V19.0212H41.8423V11.1632C41.8423 10.2882 41.615 9.60358 41.1605 9.10926C40.7116 8.61495 40.0895 8.36779 39.294 8.36779C38.7542 8.36779 38.2741 8.4871 37.8537 8.72574C37.4389 8.9587 37.1122 9.29676 36.8736 9.73995C36.6406 10.1831 36.5241 10.7201 36.5241 11.3507Z" fill="#EDF2FF"/>
<path d="M53.8594 19.2769C52.5469 19.2769 51.4133 19.0042 50.4588 18.4587C49.5099 17.9076 48.7798 17.1292 48.2684 16.1235C47.7571 15.1121 47.5014 13.9218 47.5014 12.5524C47.5014 11.2059 47.7571 10.024 48.2684 9.00699C48.7855 7.98426 49.5071 7.18881 50.4332 6.62063C51.3594 6.04676 52.4474 5.75983 53.6974 5.75983C54.5042 5.75983 55.2656 5.89051 55.9815 6.15188C56.7031 6.40756 57.3395 6.80529 57.8906 7.34506C58.4474 7.88483 58.8849 8.57233 59.2031 9.40756C59.5213 10.2371 59.6804 11.2257 59.6804 12.3735V13.3195H48.9503V11.2399H56.723C56.7173 10.649 56.5895 10.1235 56.3395 9.66324C56.0895 9.19733 55.74 8.83086 55.2912 8.56381C54.848 8.29676 54.3309 8.16324 53.74 8.16324C53.1094 8.16324 52.5554 8.31665 52.0781 8.62347C51.6008 8.9246 51.2287 9.32233 50.9616 9.81665C50.7003 10.3053 50.5667 10.8422 50.5611 11.4274V13.2428C50.5611 14.0042 50.7003 14.6576 50.9787 15.203C51.2571 15.7428 51.6463 16.1576 52.1463 16.4473C52.6463 16.7314 53.2315 16.8735 53.902 16.8735C54.3508 16.8735 54.7571 16.811 55.1207 16.686C55.4844 16.5553 55.7997 16.3649 56.0667 16.1149C56.3338 15.8649 56.5355 15.5553 56.6719 15.186L59.5525 15.5098C59.3707 16.2712 59.0241 16.936 58.5128 17.5042C58.0071 18.0667 57.3594 18.5042 56.5696 18.8167C55.7798 19.1235 54.8764 19.2769 53.8594 19.2769Z" fill="#EDF2FF"/>
<path d="M62.2905 19.0212V5.93029H65.2819V8.11211H65.4183C65.6569 7.35642 66.066 6.77404 66.6456 6.36495C67.2308 5.95017 67.8984 5.74279 68.6484 5.74279C68.8189 5.74279 69.0092 5.75131 69.2194 5.76835C69.4353 5.77972 69.6143 5.7996 69.7564 5.82801V8.66608C69.6257 8.62063 69.4183 8.58085 69.1342 8.54676C68.8558 8.50699 68.5859 8.48711 68.3246 8.48711C67.7621 8.48711 67.2564 8.60926 66.8075 8.85358C66.3643 9.09222 66.0149 9.4246 65.7592 9.85074C65.5035 10.2769 65.3757 10.7684 65.3757 11.3252V19.0212H62.2905Z" fill="#EDF2FF"/>
<path d="M71.8061 19.0212V5.93029H74.8913V19.0212H71.8061ZM73.3572 4.07233C72.8686 4.07233 72.4481 3.9104 72.0959 3.58654C71.7436 3.25699 71.5675 2.8621 71.5675 2.40188C71.5675 1.93597 71.7436 1.54108 72.0959 1.21722C72.4481 0.887673 72.8686 0.7229 73.3572 0.7229C73.8515 0.7229 74.272 0.887673 74.6186 1.21722C74.9709 1.54108 75.147 1.93597 75.147 2.40188C75.147 2.8621 74.9709 3.25699 74.6186 3.58654C74.272 3.9104 73.8515 4.07233 73.3572 4.07233Z" fill="#EDF2FF"/>
<path d="M83.7741 19.2769C82.4673 19.2769 81.3451 18.9899 80.4076 18.4161C79.4758 17.8422 78.7571 17.0496 78.2514 16.0382C77.7514 15.0212 77.5014 13.8507 77.5014 12.5269C77.5014 11.1973 77.7571 10.024 78.2684 9.00699C78.7798 7.98426 79.5014 7.18881 80.4332 6.62063C81.3707 6.04676 82.4787 5.75983 83.7571 5.75983C84.8196 5.75983 85.7599 5.95586 86.5781 6.3479C87.402 6.73426 88.0582 7.28256 88.5469 7.99279C89.0355 8.69733 89.3139 9.5212 89.3821 10.4644H86.4332C86.3139 9.8337 86.0298 9.30813 85.5809 8.88767C85.1378 8.46154 84.544 8.24847 83.7997 8.24847C83.169 8.24847 82.615 8.41892 82.1378 8.75983C81.6605 9.09506 81.2883 9.57801 81.0213 10.2087C80.7599 10.8394 80.6292 11.5951 80.6292 12.4757C80.6292 13.3678 80.7599 14.1348 81.0213 14.7769C81.2826 15.4132 81.6491 15.9047 82.1207 16.2513C82.598 16.5922 83.1576 16.7627 83.7997 16.7627C84.2542 16.7627 84.6605 16.6774 85.0184 16.507C85.3821 16.3309 85.6861 16.078 85.9304 15.7485C86.1747 15.4189 86.3423 15.0184 86.4332 14.5468H89.3821C89.3082 15.4729 89.0355 16.2939 88.5639 17.0098C88.0923 17.7201 87.4503 18.2769 86.6378 18.6803C85.8253 19.078 84.8707 19.2769 83.7741 19.2769Z" fill="#EDF2FF"/>
<path d="M112.945 7.45586H109.758C109.667 6.93313 109.499 6.47006 109.255 6.06665C109.011 5.65756 108.707 5.31097 108.343 5.02688C107.979 4.74279 107.565 4.52972 107.099 4.38767C106.638 4.23995 106.141 4.16608 105.607 4.16608C104.658 4.16608 103.817 4.40472 103.084 4.88199C102.352 5.35358 101.778 6.04676 101.363 6.96154C100.948 7.87063 100.741 8.98142 100.741 10.2939C100.741 11.6292 100.948 12.7542 101.363 13.6689C101.783 14.578 102.357 15.2655 103.084 15.7314C103.817 16.1917 104.656 16.4218 105.599 16.4218C106.121 16.4218 106.61 16.3536 107.065 16.2172C107.525 16.0752 107.937 15.8678 108.3 15.5951C108.67 15.3223 108.979 14.9871 109.229 14.5894C109.485 14.1917 109.661 13.7371 109.758 13.2257L112.945 13.2428C112.826 14.0723 112.567 14.8507 112.17 15.578C111.778 16.3053 111.263 16.9473 110.627 17.5042C109.991 18.0553 109.246 18.4871 108.394 18.7996C107.542 19.1064 106.596 19.2598 105.556 19.2598C104.022 19.2598 102.653 18.9047 101.448 18.1945C100.244 17.4843 99.2947 16.4587 98.6015 15.1178C97.9084 13.7769 97.5618 12.1689 97.5618 10.2939C97.5618 8.41324 97.9112 6.80529 98.6101 5.47006C99.3089 4.12915 100.261 3.10358 101.465 2.39335C102.67 1.68313 104.033 1.32801 105.556 1.32801C106.528 1.32801 107.431 1.46438 108.266 1.7371C109.102 2.00983 109.846 2.4104 110.499 2.93881C111.153 3.46154 111.69 4.10358 112.11 4.86495C112.536 5.62063 112.815 6.48426 112.945 7.45586Z" fill="#EDF2FF"/>
<path d="M121.415 19.2769C120.136 19.2769 119.028 18.9956 118.091 18.4331C117.153 17.8706 116.426 17.0837 115.909 16.0723C115.398 15.061 115.142 13.8792 115.142 12.5269C115.142 11.1746 115.398 9.98995 115.909 8.9729C116.426 7.95585 117.153 7.16608 118.091 6.60358C119.028 6.04108 120.136 5.75983 121.415 5.75983C122.693 5.75983 123.801 6.04108 124.739 6.60358C125.676 7.16608 126.401 7.95585 126.912 8.9729C127.429 9.98995 127.687 11.1746 127.687 12.5269C127.687 13.8792 127.429 15.061 126.912 16.0723C126.401 17.0837 125.676 17.8706 124.739 18.4331C123.801 18.9956 122.693 19.2769 121.415 19.2769ZM121.432 16.8053C122.125 16.8053 122.705 16.6149 123.17 16.2343C123.636 15.8479 123.983 15.3309 124.21 14.6831C124.443 14.0354 124.56 13.3138 124.56 12.5184C124.56 11.7172 124.443 10.9928 124.21 10.3451C123.983 9.69165 123.636 9.17176 123.17 8.7854C122.705 8.39904 122.125 8.20586 121.432 8.20586C120.722 8.20586 120.131 8.39904 119.659 8.7854C119.193 9.17176 118.844 9.69165 118.611 10.3451C118.383 10.9928 118.27 11.7172 118.27 12.5184C118.27 13.3138 118.383 14.0354 118.611 14.6831C118.844 15.3309 119.193 15.8479 119.659 16.2343C120.131 16.6149 120.722 16.8053 121.432 16.8053Z" fill="#EDF2FF"/>
<path d="M138.65 13.5155V5.93029H141.735V19.0212H138.744V16.6945H138.607C138.312 17.4274 137.826 18.0269 137.15 18.4928C136.479 18.9587 135.653 19.1917 134.67 19.1917C133.812 19.1917 133.053 19.0013 132.394 18.6206C131.741 18.2343 131.229 17.6746 130.86 16.9417C130.491 16.203 130.306 15.311 130.306 14.2655V5.93029H133.391V13.7882C133.391 14.6178 133.619 15.2769 134.073 15.7655C134.528 16.2542 135.124 16.4985 135.863 16.4985C136.317 16.4985 136.758 16.3877 137.184 16.1661C137.61 15.9445 137.96 15.6149 138.232 15.1774C138.511 14.7343 138.65 14.1803 138.65 13.5155Z" fill="#EDF2FF"/>
<path d="M144.908 19.0212V5.93029H147.899V8.11211H148.035C148.274 7.35642 148.683 6.77404 149.263 6.36495C149.848 5.95017 150.516 5.74279 151.266 5.74279C151.436 5.74279 151.626 5.75131 151.837 5.76835C152.053 5.77972 152.232 5.7996 152.374 5.82801V8.66608C152.243 8.62063 152.035 8.58085 151.751 8.54676C151.473 8.50699 151.203 8.48711 150.942 8.48711C150.379 8.48711 149.874 8.60926 149.425 8.85358C148.982 9.09222 148.632 9.4246 148.376 9.85074C148.121 10.2769 147.993 10.7684 147.993 11.3252V19.0212H144.908Z" fill="#EDF2FF"/>
<path d="M164.77 9.39051L161.957 9.69733C161.878 9.41324 161.739 9.1462 161.54 8.8962C161.347 8.6462 161.085 8.44449 160.756 8.29108C160.426 8.13767 160.023 8.06097 159.545 8.06097C158.903 8.06097 158.364 8.20017 157.926 8.47858C157.494 8.75699 157.281 9.11779 157.287 9.56097C157.281 9.94165 157.42 10.2513 157.705 10.4899C157.994 10.7286 158.472 10.9246 159.136 11.078L161.369 11.5553C162.608 11.8223 163.528 12.2456 164.131 12.8252C164.739 13.4047 165.045 14.1632 165.051 15.1007C165.045 15.9246 164.804 16.6519 164.327 17.2826C163.855 17.9076 163.199 18.3962 162.358 18.7485C161.517 19.1007 160.551 19.2769 159.46 19.2769C157.858 19.2769 156.568 18.9417 155.591 18.2712C154.614 17.5951 154.031 16.6547 153.844 15.4502L156.852 15.1604C156.989 15.7513 157.278 16.1973 157.722 16.4985C158.165 16.7996 158.741 16.9502 159.452 16.9502C160.185 16.9502 160.773 16.7996 161.216 16.4985C161.665 16.1973 161.889 15.8252 161.889 15.382C161.889 15.007 161.744 14.6973 161.455 14.453C161.17 14.2087 160.727 14.0212 160.125 13.8905L157.892 13.4218C156.636 13.1604 155.707 12.7201 155.105 12.1007C154.503 11.4757 154.205 10.686 154.21 9.73142C154.205 8.92461 154.423 8.22574 154.866 7.63483C155.315 7.03824 155.937 6.57801 156.733 6.25415C157.534 5.92461 158.457 5.75983 159.503 5.75983C161.037 5.75983 162.244 6.08654 163.125 6.73995C164.011 7.39336 164.56 8.27688 164.77 9.39051Z" fill="#EDF2FF"/>
<path d="M173.391 19.2769C172.078 19.2769 170.945 19.0042 169.99 18.4587C169.041 17.9076 168.311 17.1292 167.8 16.1235C167.288 15.1121 167.033 13.9218 167.033 12.5524C167.033 11.2059 167.288 10.024 167.8 9.00699C168.317 7.98426 169.038 7.18881 169.964 6.62063C170.891 6.04676 171.979 5.75983 173.229 5.75983C174.035 5.75983 174.797 5.89051 175.513 6.15188C176.234 6.40756 176.871 6.80529 177.422 7.34506C177.979 7.88483 178.416 8.57233 178.734 9.40756C179.053 10.2371 179.212 11.2257 179.212 12.3735V13.3195H168.482V11.2399H176.254C176.249 10.649 176.121 10.1235 175.871 9.66324C175.621 9.19733 175.271 8.83086 174.822 8.56381C174.379 8.29676 173.862 8.16324 173.271 8.16324C172.641 8.16324 172.087 8.31665 171.609 8.62347C171.132 8.9246 170.76 9.32233 170.493 9.81665C170.232 10.3053 170.098 10.8422 170.092 11.4274V13.2428C170.092 14.0042 170.232 14.6576 170.51 15.203C170.788 15.7428 171.178 16.1576 171.678 16.4473C172.178 16.7314 172.763 16.8735 173.433 16.8735C173.882 16.8735 174.288 16.811 174.652 16.686C175.016 16.5553 175.331 16.3649 175.598 16.1149C175.865 15.8649 176.067 15.5553 176.203 15.186L179.084 15.5098C178.902 16.2712 178.555 16.936 178.044 17.5042C177.538 18.0667 176.891 18.5042 176.101 18.8167C175.311 19.1235 174.408 19.2769 173.391 19.2769Z" fill="#EDF2FF"/>
</svg>
